<svg width="284" height="51" viewBox="0 0 284 51" fill="none" xmlns="http://www.w3.org/2000/svg">
<path d="M36.4697 44.9121C34.2594 44.9121 32.5391 44.3197 31.3086 43.1348C30.1009 41.9499 29.1211 40.3092 28.3691 38.2129C27.64 36.1165 26.888 33.6898 26.1133 30.9326C25.7031 29.4515 25.1562 28.1299 24.4727 26.9678C23.7891 25.7829 23.1283 24.7347 22.4902 23.8232C21.8066 23.5726 20.9977 23.3903 20.0635 23.2764C19.152 23.1624 18.1266 23.1055 16.9873 23.1055H12.4756V38.9307C12.4756 39.8193 12.7718 40.3434 13.3643 40.5029C13.9795 40.6396 15.1188 40.708 16.7822 40.708H18.5596V44.0918C17.1924 44.0918 15.848 44.0918 14.5264 44.0918C13.2048 44.069 11.5983 44.0462 9.70703 44.0234C7.70182 44.0234 5.94727 44.0348 4.44336 44.0576C2.96224 44.0804 1.48112 44.0918 0 44.0918V40.708H1.70898C3.23568 40.708 4.30664 40.6283 4.92188 40.4688C5.5599 40.3092 5.93587 40.07 6.0498 39.751C6.18652 39.4092 6.25488 38.999 6.25488 38.5205V5.57129C6.25488 4.93327 6.17513 4.46615 6.01562 4.16992C5.87891 3.85091 5.49154 3.64583 4.85352 3.55469C4.23828 3.44076 3.21289 3.38379 1.77734 3.38379C1.50391 3.38379 1.21908 3.38379 0.922852 3.38379C0.626628 3.38379 0.31901 3.38379 0 3.38379V0H18.833C21.3395 0 23.6523 0.159505 25.7715 0.478516C27.9134 0.797526 29.7819 1.36719 31.377 2.1875C32.972 2.98503 34.2139 4.13574 35.1025 5.63965C35.9912 7.12077 36.4355 9.02344 36.4355 11.3477C36.4355 14.0592 35.5924 16.3379 33.9062 18.1836C32.2201 20.0065 29.8389 21.2484 26.7627 21.9092C28.1071 22.9346 29.3034 24.1764 30.3516 25.6348C31.3997 27.0703 32.2542 29.2464 32.915 32.1631C33.6214 35.1709 34.2594 37.3698 34.8291 38.7598C35.4215 40.127 36.3444 40.8105 37.5977 40.8105C38.2812 40.8105 38.9307 40.6169 39.5459 40.2295C40.1611 39.8193 40.4688 38.9193 40.4688 37.5293L43.9209 37.2217C43.9209 39.5687 43.2715 41.4372 41.9727 42.8271C40.6738 44.2171 38.8395 44.9121 36.4697 44.9121ZM12.4756 19.79H19.9268C23.6182 19.79 26.2614 19.1748 27.8564 17.9443C29.4515 16.7139 30.249 14.6403 30.249 11.7236C30.249 9.49056 29.7591 7.80436 28.7793 6.66504C27.8223 5.50293 26.4209 4.7168 24.5752 4.30664C22.7295 3.89648 20.4622 3.69141 17.7734 3.69141H12.4756V19.79ZM81.8604 44.9121C79.6501 44.9121 77.9297 44.3197 76.6992 43.1348C75.4915 41.9499 74.5117 40.3092 73.7598 38.2129C73.0306 36.1165 72.2786 33.6898 71.5039 30.9326C71.0938 29.4515 70.5469 28.1299 69.8633 26.9678C69.1797 25.7829 68.5189 24.7347 67.8809 23.8232C67.1973 23.5726 66.3883 23.3903 65.4541 23.2764C64.5426 23.1624 63.5173 23.1055 62.3779 23.1055H57.8662V38.9307C57.8662 39.8193 58.1624 40.3434 58.7549 40.5029C59.3701 40.6396 60.5094 40.708 62.1729 40.708H63.9502V44.0918C62.583 44.0918 61.2386 44.0918 59.917 44.0918C58.5954 44.069 56.9889 44.0462 55.0977 44.0234C53.0924 44.0234 51.3379 44.0348 49.834 44.0576C48.3529 44.0804 46.8717 44.0918 45.3906 44.0918V40.708H47.0996C48.6263 40.708 49.6973 40.6283 50.3125 40.4688C50.9505 40.3092 51.3265 40.07 51.4404 39.751C51.5771 39.4092 51.6455 38.999 51.6455 38.5205V5.57129C51.6455 4.93327 51.5658 4.46615 51.4062 4.16992C51.2695 3.85091 50.8822 3.64583 50.2441 3.55469C49.6289 3.44076 48.6035 3.38379 47.168 3.38379C46.8945 3.38379 46.6097 3.38379 46.3135 3.38379C46.0173 3.38379 45.7096 3.38379 45.3906 3.38379V0H64.2236C66.7301 0 69.043 0.159505 71.1621 0.478516C73.304 0.797526 75.1725 1.36719 76.7676 2.1875C78.3626 2.98503 79.6045 4.13574 80.4932 5.63965C81.3818 7.12077 81.8262 9.02344 81.8262 11.3477C81.8262 14.0592 80.9831 16.3379 79.2969 18.1836C77.6107 20.0065 75.2295 21.2484 72.1533 21.9092C73.4977 22.9346 74.694 24.1764 75.7422 25.6348C76.7904 27.0703 77.6449 29.2464 78.3057 32.1631C79.012 35.1709 79.6501 37.3698 80.2197 38.7598C80.8122 40.127 81.735 40.8105 82.9883 40.8105C83.6719 40.8105 84.3213 40.6169 84.9365 40.2295C85.5518 39.8193 85.8594 38.9193 85.8594 37.5293L89.3115 37.2217C89.3115 39.5687 88.6621 41.4372 87.3633 42.8271C86.0645 44.2171 84.2301 44.9121 81.8604 44.9121ZM57.8662 19.79H65.3174C69.0088 19.79 71.652 19.1748 73.2471 17.9443C74.8421 16.7139 75.6396 14.6403 75.6396 11.7236C75.6396 9.49056 75.1497 7.80436 74.1699 6.66504C73.2129 5.50293 71.8115 4.7168 69.9658 4.30664C68.1201 3.89648 65.8529 3.69141 63.1641 3.69141H57.8662V19.79ZM121.833 44.502C120.728 44.502 119.868 44.2057 119.253 43.6133C118.649 43.0208 118.159 42.2005 117.783 41.1523C117.419 40.1042 117.043 38.8908 116.655 37.5122C116.45 36.7716 116.177 36.1108 115.835 35.5298C115.493 34.9373 115.163 34.4132 114.844 33.9575C114.502 33.8322 114.097 33.741 113.63 33.6841C113.175 33.6271 112.662 33.5986 112.092 33.5986H109.836V41.5112C109.836 41.9556 109.985 42.2176 110.281 42.2974C110.588 42.3657 111.158 42.3999 111.99 42.3999H112.878V44.0918C112.195 44.0918 111.523 44.0918 110.862 44.0918C110.201 44.0804 109.398 44.069 108.452 44.0576C107.45 44.0576 106.572 44.0633 105.82 44.0747C105.08 44.0861 104.339 44.0918 103.599 44.0918V42.3999H104.453C105.216 42.3999 105.752 42.36 106.06 42.2803C106.379 42.2005 106.567 42.0809 106.624 41.9214C106.692 41.7505 106.726 41.5454 106.726 41.3062V24.8315C106.726 24.5125 106.686 24.279 106.606 24.1309C106.538 23.9714 106.344 23.8688 106.025 23.8232C105.718 23.7663 105.205 23.7378 104.487 23.7378C104.351 23.7378 104.208 23.7378 104.06 23.7378C103.912 23.7378 103.758 23.7378 103.599 23.7378V22.0459H113.015C114.268 22.0459 115.425 22.1257 116.484 22.2852C117.555 22.4447 118.49 22.7295 119.287 23.1396C120.085 23.5384 120.706 24.1138 121.15 24.8657C121.594 25.6063 121.816 26.5576 121.816 27.7197C121.816 29.0755 121.395 30.2148 120.552 31.1377C119.709 32.0492 118.518 32.6701 116.98 33.0005C117.652 33.5132 118.25 34.1341 118.774 34.8633C119.299 35.5811 119.726 36.6691 120.056 38.1274C120.409 39.6313 120.728 40.7308 121.013 41.4258C121.309 42.1094 121.771 42.4512 122.397 42.4512C122.739 42.4512 123.064 42.3543 123.372 42.1606C123.679 41.9556 123.833 41.5055 123.833 40.8105L125.559 40.6567C125.559 41.8302 125.234 42.7645 124.585 43.4595C123.936 44.1545 123.018 44.502 121.833 44.502ZM109.836 31.9409H113.562C115.408 31.9409 116.729 31.6333 117.527 31.0181C118.324 30.4028 118.723 29.366 118.723 27.9077C118.723 26.7912 118.478 25.9481 117.988 25.3784C117.51 24.7974 116.809 24.4043 115.886 24.1992C114.963 23.9941 113.83 23.8916 112.485 23.8916H109.836V31.9409ZM135.027 44.5703C133.42 44.5703 132.008 44.2342 130.789 43.562C129.569 42.8898 128.612 41.9499 127.917 40.7422C127.234 39.5231 126.892 38.0933 126.892 36.4526C126.892 34.812 127.234 33.3822 127.917 32.1631C128.612 30.944 129.569 30.0041 130.789 29.3433C132.019 28.6711 133.432 28.335 135.027 28.335C136.633 28.335 138.046 28.6711 139.265 29.3433C140.496 30.0041 141.458 30.944 142.153 32.1631C142.848 33.3708 143.196 34.8006 143.196 36.4526C143.196 38.0819 142.848 39.506 142.153 40.7251C141.47 41.9442 140.513 42.8898 139.282 43.562C138.063 44.2342 136.645 44.5703 135.027 44.5703ZM135.027 42.793C136.599 42.793 137.858 42.2176 138.804 41.0669C139.749 39.9162 140.222 38.3724 140.222 36.4355C140.222 34.4873 139.749 32.9435 138.804 31.8042C137.869 30.6649 136.611 30.0952 135.027 30.0952C133.443 30.0952 132.184 30.6649 131.25 31.8042C130.316 32.9321 129.849 34.4759 129.849 36.4355C129.849 38.3724 130.316 39.9162 131.25 41.0669C132.184 42.2176 133.443 42.793 135.027 42.793ZM149.194 50.9961C148.704 50.9961 148.226 50.9277 147.759 50.791C147.292 50.6543 147.013 50.5745 146.921 50.5518L147.041 48.7402C147.212 48.763 147.537 48.8086 148.015 48.877C148.505 48.9567 148.898 48.9966 149.194 48.9966C149.661 48.9966 150.094 48.7744 150.493 48.3301C150.903 47.8971 151.359 47.1224 151.86 46.0059L152.51 44.2969C152.51 44.2969 152.373 44.012 152.1 43.4424C151.838 42.8613 151.49 42.1094 151.057 41.1865C150.636 40.2637 150.18 39.2782 149.69 38.23C149.2 37.1818 148.727 36.1792 148.271 35.2222C147.827 34.2537 147.451 33.4391 147.144 32.7783C146.836 32.1175 146.654 31.7244 146.597 31.5991C146.346 31.0636 146.118 30.7332 145.913 30.6079C145.708 30.4712 145.275 30.4028 144.614 30.4028H144.016C144.016 30.3117 144.016 30.1978 144.016 30.061C144.016 29.9129 144.01 29.7591 143.999 29.5996C143.999 29.4401 143.999 29.292 143.999 29.1553C143.999 29.0072 143.999 28.8875 143.999 28.7964C144.637 28.7964 145.275 28.8021 145.913 28.8135C146.551 28.8249 147.149 28.8306 147.708 28.8306C148.243 28.8306 148.847 28.8249 149.519 28.8135C150.203 28.8021 150.972 28.7964 151.826 28.7964V30.3516H150.322C150.037 30.3516 149.798 30.4028 149.604 30.5054C149.411 30.5965 149.314 30.7788 149.314 31.0522C149.314 31.508 149.468 32.0605 149.775 32.71C150.083 33.348 150.362 33.9347 150.613 34.4702L153.877 41.4429L157.568 32.2998C157.785 31.7871 157.899 31.3997 157.91 31.1377C157.899 30.8073 157.745 30.5965 157.449 30.5054C157.164 30.4028 156.503 30.3516 155.466 30.3516V28.7964C156.059 28.7964 156.628 28.8021 157.175 28.8135C157.734 28.8249 158.286 28.8306 158.833 28.8306C159.437 28.8306 160.058 28.8249 160.696 28.8135C161.334 28.8021 161.978 28.7964 162.627 28.7964C162.627 28.8875 162.627 29.0015 162.627 29.1382C162.627 29.2749 162.627 29.423 162.627 29.5825C162.627 29.7306 162.627 29.873 162.627 30.0098C162.638 30.1465 162.644 30.2604 162.644 30.3516C161.995 30.3516 161.516 30.3914 161.208 30.4712C160.912 30.5396 160.684 30.6934 160.525 30.9326C160.377 31.1719 160.189 31.5422 159.961 32.0435L154.065 45.9204C153.518 47.2078 153.005 48.2218 152.527 48.9624C152.048 49.703 151.547 50.2271 151.023 50.5347C150.499 50.8423 149.889 50.9961 149.194 50.9961ZM169.395 44.4507C167.765 44.4507 166.461 44.012 165.481 43.1348C164.501 42.2575 164.011 41.141 164.011 39.7852C164.011 38.3268 164.592 37.1533 165.754 36.2646C166.917 35.376 168.54 34.9316 170.625 34.9316C171.331 34.9316 172.049 34.9886 172.778 35.1025C173.519 35.2051 174.265 35.3532 175.017 35.5469V33.0176C175.017 31.9922 174.67 31.2061 173.975 30.6592C173.291 30.1009 172.237 29.8218 170.813 29.8218C168.477 29.8218 167.087 30.7674 166.643 32.6587L165.071 32.4707L165.293 29.4629C166.022 29.1325 166.877 28.8647 167.856 28.6597C168.836 28.4432 169.93 28.335 171.138 28.335C173.553 28.335 175.279 28.7736 176.316 29.6509C177.364 30.5282 177.888 31.9067 177.888 33.7866V40.2637C177.888 41.0498 177.928 41.6024 178.008 41.9214C178.088 42.2404 178.241 42.4284 178.469 42.4854C178.697 42.5423 179.039 42.5708 179.495 42.5708H180.264V44.0918C180.081 44.0804 179.899 44.0747 179.717 44.0747C179.535 44.0747 179.352 44.0804 179.17 44.0918C178.988 44.0918 178.805 44.0918 178.623 44.0918C178.008 44.1032 177.404 44.1146 176.812 44.126C176.219 44.1374 175.655 44.1488 175.12 44.1602V41.8188C174.436 42.6847 173.621 43.3398 172.676 43.7842C171.742 44.2285 170.648 44.4507 169.395 44.4507ZM170.266 42.8101C171.007 42.8101 171.742 42.6562 172.471 42.3486C173.2 42.0296 173.804 41.5625 174.282 40.9473C174.772 40.332 175.017 39.563 175.017 38.6401V36.9653C174.333 36.7716 173.684 36.6235 173.069 36.521C172.454 36.4185 171.855 36.3672 171.274 36.3672C169.907 36.3672 168.825 36.6634 168.027 37.2559C167.241 37.8369 166.848 38.6515 166.848 39.6997C166.848 40.634 167.167 41.3859 167.805 41.9556C168.443 42.5252 169.264 42.8101 170.266 42.8101ZM181.853 44.0918C181.853 44.0007 181.853 43.8867 181.853 43.75C181.853 43.6133 181.847 43.4709 181.836 43.3228C181.836 43.1632 181.836 43.0151 181.836 42.8784C181.836 42.7417 181.836 42.6278 181.836 42.5366C182.702 42.5366 183.311 42.4854 183.665 42.3828C184.018 42.2803 184.229 42.1265 184.297 41.9214C184.377 41.7163 184.417 41.46 184.417 41.1523V24.4043C184.417 23.9827 184.2 23.7378 183.767 23.6694C183.334 23.6011 182.719 23.5612 181.921 23.5498V22.0117C182.229 22.0117 182.525 22.0117 182.81 22.0117C183.095 22.0003 183.38 21.9946 183.665 21.9946C183.961 21.9946 184.251 21.9946 184.536 21.9946C184.969 21.9832 185.408 21.9775 185.852 21.9775C186.308 21.9661 186.781 21.9548 187.271 21.9434V41.3403C187.271 41.8986 187.487 42.2404 187.92 42.3657C188.364 42.4797 189.025 42.5366 189.902 42.5366V44.0918C189.276 44.0918 188.649 44.0918 188.022 44.0918C187.407 44.0804 186.678 44.069 185.835 44.0576C185.003 44.0576 184.285 44.0633 183.682 44.0747C183.078 44.0861 182.468 44.0918 181.853 44.0918ZM217.092 44.502C215.987 44.502 215.127 44.2057 214.512 43.6133C213.908 43.0208 213.418 42.2005 213.042 41.1523C212.677 40.1042 212.301 38.8908 211.914 37.5122C211.709 36.7716 211.436 36.1108 211.094 35.5298C210.752 34.9373 210.422 34.4132 210.103 33.9575C209.761 33.8322 209.356 33.741 208.889 33.6841C208.433 33.6271 207.921 33.5986 207.351 33.5986H205.095V41.5112C205.095 41.9556 205.243 42.2176 205.54 42.2974C205.847 42.3657 206.417 42.3999 207.249 42.3999H208.137V44.0918C207.454 44.0918 206.781 44.0918 206.121 44.0918C205.46 44.0804 204.657 44.069 203.711 44.0576C202.708 44.0576 201.831 44.0633 201.079 44.0747C200.339 44.0861 199.598 44.0918 198.857 44.0918V42.3999H199.712C200.475 42.3999 201.011 42.36 201.318 42.2803C201.637 42.2005 201.825 42.0809 201.882 41.9214C201.951 41.7505 201.985 41.5454 201.985 41.3062V24.8315C201.985 24.5125 201.945 24.279 201.865 24.1309C201.797 23.9714 201.603 23.8688 201.284 23.8232C200.977 23.7663 200.464 23.7378 199.746 23.7378C199.609 23.7378 199.467 23.7378 199.319 23.7378C199.171 23.7378 199.017 23.7378 198.857 23.7378V22.0459H208.274C209.527 22.0459 210.684 22.1257 211.743 22.2852C212.814 22.4447 213.748 22.7295 214.546 23.1396C215.343 23.5384 215.964 24.1138 216.409 24.8657C216.853 25.6063 217.075 26.5576 217.075 27.7197C217.075 29.0755 216.654 30.2148 215.811 31.1377C214.967 32.0492 213.777 32.6701 212.239 33.0005C212.911 33.5132 213.509 34.1341 214.033 34.8633C214.557 35.5811 214.985 36.6691 215.315 38.1274C215.668 39.6313 215.987 40.7308 216.272 41.4258C216.568 42.1094 217.03 42.4512 217.656 42.4512C217.998 42.4512 218.323 42.3543 218.63 42.1606C218.938 41.9556 219.092 41.5055 219.092 40.8105L220.818 40.6567C220.818 41.8302 220.493 42.7645 219.844 43.4595C219.194 44.1545 218.277 44.502 217.092 44.502ZM205.095 31.9409H208.821C210.667 31.9409 211.988 31.6333 212.786 31.0181C213.583 30.4028 213.982 29.366 213.982 27.9077C213.982 26.7912 213.737 25.9481 213.247 25.3784C212.769 24.7974 212.068 24.4043 211.145 24.1992C210.222 23.9941 209.089 23.8916 207.744 23.8916H205.095V31.9409ZM227.705 44.4507C226.076 44.4507 224.771 44.012 223.792 43.1348C222.812 42.2575 222.322 41.141 222.322 39.7852C222.322 38.3268 222.903 37.1533 224.065 36.2646C225.227 35.376 226.851 34.9316 228.936 34.9316C229.642 34.9316 230.36 34.9886 231.089 35.1025C231.829 35.2051 232.576 35.3532 233.328 35.5469V33.0176C233.328 31.9922 232.98 31.2061 232.285 30.6592C231.602 30.1009 230.548 29.8218 229.124 29.8218C226.788 29.8218 225.398 30.7674 224.954 32.6587L223.381 32.4707L223.604 29.4629C224.333 29.1325 225.187 28.8647 226.167 28.6597C227.147 28.4432 228.241 28.335 229.448 28.335C231.864 28.335 233.59 28.7736 234.626 29.6509C235.675 30.5282 236.199 31.9067 236.199 33.7866V40.2637C236.199 41.0498 236.239 41.6024 236.318 41.9214C236.398 42.2404 236.552 42.4284 236.78 42.4854C237.008 42.5423 237.349 42.5708 237.805 42.5708H238.574V44.0918C238.392 44.0804 238.21 44.0747 238.027 44.0747C237.845 44.0747 237.663 44.0804 237.48 44.0918C237.298 44.0918 237.116 44.0918 236.934 44.0918C236.318 44.1032 235.715 44.1146 235.122 44.126C234.53 44.1374 233.966 44.1488 233.43 44.1602V41.8188C232.747 42.6847 231.932 43.3398 230.986 43.7842C230.052 44.2285 228.958 44.4507 227.705 44.4507ZM228.577 42.8101C229.317 42.8101 230.052 42.6562 230.781 42.3486C231.51 42.0296 232.114 41.5625 232.593 40.9473C233.083 40.332 233.328 39.563 233.328 38.6401V36.9653C232.644 36.7716 231.995 36.6235 231.379 36.521C230.764 36.4185 230.166 36.3672 229.585 36.3672C228.218 36.3672 227.135 36.6634 226.338 37.2559C225.552 37.8369 225.159 38.6515 225.159 39.6997C225.159 40.634 225.478 41.3859 226.116 41.9556C226.754 42.5252 227.574 42.8101 228.577 42.8101ZM247.615 44.4507C246.441 44.4507 245.456 44.3083 244.658 44.0234C243.872 43.7272 243.228 43.2772 242.727 42.6733L242.556 43.9551C242.306 43.9551 242.055 43.9551 241.804 43.9551C241.565 43.9437 241.314 43.938 241.052 43.938V39.0161H242.71C242.733 40.3035 243.137 41.2891 243.923 41.9727C244.709 42.6449 245.809 42.981 247.222 42.981C248.384 42.981 249.329 42.7474 250.059 42.2803C250.788 41.8018 251.152 41.158 251.152 40.3491C251.152 39.7453 250.924 39.2668 250.469 38.9136C250.013 38.549 249.409 38.2414 248.657 37.9907C247.917 37.7401 247.102 37.4894 246.213 37.2388C245.142 36.9084 244.242 36.5552 243.513 36.1792C242.784 35.8032 242.237 35.3418 241.873 34.7949C241.508 34.248 241.326 33.5645 241.326 32.7441C241.326 31.5479 241.821 30.5396 242.812 29.7192C243.815 28.8875 245.154 28.4717 246.829 28.4717C247.763 28.4717 248.646 28.597 249.478 28.8477C250.309 29.0869 250.981 29.4743 251.494 30.0098C251.506 29.987 251.54 29.8844 251.597 29.7021C251.654 29.5085 251.711 29.3205 251.768 29.1382C251.825 28.9445 251.853 28.8477 251.853 28.8477C251.853 28.8477 251.95 28.8534 252.144 28.8647C252.337 28.8647 252.537 28.8647 252.742 28.8647C252.958 28.8647 253.089 28.8704 253.135 28.8818V33.5303H251.528C251.483 32.391 251.101 31.5137 250.383 30.8984C249.666 30.2718 248.64 29.9585 247.307 29.9585C246.168 29.9585 245.319 30.2091 244.761 30.7104C244.202 31.2118 243.923 31.7871 243.923 32.4365C243.923 33.1429 244.282 33.6898 245 34.0771C245.718 34.4531 246.646 34.7892 247.786 35.0854C249.016 35.4045 250.081 35.752 250.981 36.1279C251.893 36.4925 252.594 36.971 253.083 37.5635C253.573 38.1559 253.818 38.9478 253.818 39.939C253.818 40.9074 253.562 41.7277 253.049 42.3999C252.537 43.0721 251.813 43.5848 250.879 43.938C249.956 44.2798 248.868 44.4507 247.615 44.4507ZM264.841 44.5703C263.235 44.5703 261.822 44.2342 260.603 43.562C259.384 42.8898 258.427 41.9499 257.732 40.7422C257.048 39.5231 256.707 38.0933 256.707 36.4526C256.707 34.812 257.048 33.3822 257.732 32.1631C258.427 30.944 259.384 30.0041 260.603 29.3433C261.833 28.6711 263.246 28.335 264.841 28.335C266.448 28.335 267.861 28.6711 269.08 29.3433C270.31 30.0041 271.273 30.944 271.968 32.1631C272.663 33.3708 273.01 34.8006 273.01 36.4526C273.01 38.0819 272.663 39.506 271.968 40.7251C271.284 41.9442 270.327 42.8898 269.097 43.562C267.878 44.2342 266.459 44.5703 264.841 44.5703ZM264.841 42.793C266.414 42.793 267.673 42.2176 268.618 41.0669C269.564 39.9162 270.037 38.3724 270.037 36.4355C270.037 34.4873 269.564 32.9435 268.618 31.8042C267.684 30.6649 266.425 30.0952 264.841 30.0952C263.258 30.0952 261.999 30.6649 261.064 31.8042C260.13 32.9321 259.663 34.4759 259.663 36.4355C259.663 38.3724 260.13 39.9162 261.064 41.0669C261.999 42.2176 263.258 42.793 264.841 42.793ZM275.369 44.0918V42.5366C276.2 42.5366 276.787 42.5081 277.129 42.4512C277.482 42.3828 277.699 42.2689 277.778 42.1094C277.858 41.9499 277.898 41.722 277.898 41.4258V30.9497C277.898 30.6307 277.716 30.4484 277.351 30.4028C276.986 30.3573 276.354 30.3288 275.454 30.3174C275.454 30.0553 275.454 29.799 275.454 29.5483C275.454 29.2977 275.454 29.047 275.454 28.7964C275.921 28.7964 276.377 28.7964 276.821 28.7964C277.266 28.7964 277.699 28.7907 278.12 28.7793C278.576 28.7679 279.02 28.7565 279.453 28.7451C279.886 28.7337 280.325 28.7223 280.769 28.7109V41.4941C280.769 42.0068 280.963 42.3088 281.35 42.3999C281.749 42.491 282.41 42.5366 283.333 42.5366V44.0918C283.036 44.0918 282.638 44.0918 282.136 44.0918C281.646 44.0804 281.139 44.0747 280.615 44.0747C280.103 44.0747 279.658 44.0747 279.282 44.0747C278.906 44.0633 278.684 44.0576 278.616 44.0576C277.978 44.0576 277.408 44.0633 276.907 44.0747C276.405 44.0861 275.893 44.0918 275.369 44.0918ZM279.197 25.4297C278.695 25.4297 278.291 25.2816 277.983 24.9854C277.687 24.6891 277.539 24.3018 277.539 23.8232C277.539 23.3447 277.687 22.9631 277.983 22.6782C278.291 22.3934 278.69 22.251 279.18 22.251C279.681 22.251 280.08 22.3934 280.376 22.6782C280.672 22.9631 280.82 23.3504 280.82 23.8403C280.82 24.3075 280.672 24.6891 280.376 24.9854C280.08 25.2816 279.687 25.4297 279.197 25.4297Z" fill="url(#paint0_linear_7_43)"/>
<defs>
<linearGradient id="paint0_linear_7_43" x1="151.415" y1="11.5463" x2="151.415" y2="67.7282" gradientUnits="userSpaceOnUse">
<stop stop-color="#F9D133"/>
<stop offset="0.572115" stop-color="#766E4B"/>
</linearGradient>
</defs>
</svg>
